:SAMPLES-PER-SECOND 30
:FULLY-SPECIFIED
:DEGREES
248
root  57.9885 39.7829 -2.75681 -168.782 -18.9839 177.028
RightUpLeg  -17.7533 -17.7681 -12.9103
RightLeg  2.49505 -41.4866 8.10355
RightFoot  10.2696 0.721171 -3.40317
RightToes  0.000482159 0.542163 -0.142577
Spine  44.5293 -5.17465 12.9861
Spine1  10.9462 1.22477 -4.47229
HEad  -13.9568 18.5087 -21.6587
LeftShoulder1  10.95 -18.4742 -43.3131
LeftArm  -16.0504 1.9203 -18.4112
LeftForeArm  10.877 -4.83057 -4.00504
LeftHand  -0.25398 0.0180481 5.50724
RightShoulder  6.68734 13.7823 32.7232
RightArm  3.42843 10.6795 24.0913
RightForeArm  -21.3843 19.3912 6.83257
RightHand  -3.77435 9.28201 -29.6479
LeftUpLeg  -29.0775 24.536 -1.09124
LeftLeg  21.3372 -2.47697 -0.736792
LeftFoot  -0.163065 0.333702 -3.40781
LeftToes  1.06247e-005 4.65855e-005 -8.18504e-006
249
root  57.279 39.7927 -2.69201 -169.232 -21.2125 176.935
RightUpLeg  -15.4856 -17.8809 -14.4494
RightLeg  0.591653 -43.0835 8.61262
RightFoot  11.7787 0.612147 -2.59599
RightToes  0.000482159 0.542163 -0.142577
Spine  41.9337 -4.965 12.9022
Spine1  10.3188 1.06329 -4.57646
HEad  -12.5138 20.3658 -21.2903
LeftShoulder1  10.8288 -18.126 -43.54
LeftArm  -15.2181 8.67895 -17.2063
LeftForeArm  11.327 -7.1368 -4.00116
LeftHand  -0.25398 0.0180481 5.50724
RightShoulder  6.5346 13.0628 33.4835
RightArm  5.65485 5.68839 25.4225
RightForeArm  -23.9509 21.5552 6.3279
RightHand  -3.74229 9.03471 -29.883
LeftUpLeg  -26.9927 26.1418 0.316659
LeftLeg  19.7046 -1.38386 -0.220834
LeftFoot  -0.387097 0.147262 -1.50609
LeftToes  1.06247e-005 4.65855e-005 -8.18504e-006
250
root  56.4547 39.7577 -2.60349 -169.308 -23.6028 176.809
RightUpLeg  -13.2252 -18.0706 -16.1414
RightLeg  -1.81867 -45.1229 9.59019
RightFoot  13.5982 0.428301 -1.51211
RightToes  0.000482159 0.542163 -0.142577
Spine  39.1554 -4.80684 12.5274
Spine1  9.59002 0.661415 -4.51823
HEad  -11.1533 21.987 -20.7726
LeftShoulder1  10.5804 -17.536 -43.7508
LeftArm  -14.5047 14.9053 -16.405
LeftForeArm  11.3925 -9.81281 -4.00063
LeftHand  -0.25398 0.0180481 5.50724
RightShoulder  6.38424 12.6052 33.6751
RightArm  6.8178 0.852691 26.7502
RightForeArm  -24.556 23.3935 6.20319
RightHand  -3.69803 8.81866 -29.97
LeftUpLeg  -25.9569 28.7311 0.682808
LeftLeg  18.1306 0.76762 0.593416
LeftFoot  -1.22833 -0.0251024 0.379176
LeftToes  1.06247e-005 4.65855e-005 -8.18504e-006
251
root  55.526 39.6926 -2.5002 -169.188 -26.1982 176.604
RightUpLeg  -10.5459 -18.1557 -18.0151
RightLeg  -5.38211 -47.1239 11.4231
RightFoot  15.4654 0.233023 -0.521442
RightToes  0.000482159 0.542163 -0.142577
Spine  36.3336 -4.63233 11.9931
Spine1  8.91138 0.27674 -4.51691
HEad  -9.55275 23.0067 -20.1819
LeftShoulder1  10.2832 -16.8898 -43.8803
LeftArm  -14.2419 20.1476 -16.2353
LeftForeArm  11.2389 -12.2559 -3.78126
LeftHand  -0.25398 0.0180481 5.50724
RightShoulder  6.27238 12.2234 33.9268
RightArm  7.18578 -3.94152 27.491
RightForeArm  -22.7481 25.1266 6.44423
RightHand  -3.61465 8.68122 -29.6023
LeftUpLeg  -25.5603 31.7477 0.203914
LeftLeg  16.8542 4.32489 1.45761
LeftFoot  -2.40144 -0.12906 1.82748
LeftToes  1.06247e-005 4.65855e-005 -8.18504e-006
252
root  54.4851 39.583 -2.37882 -169.158 -28.8463 176.289
RightUpLeg  -7.49794 -18.1709 -20.1314
RightLeg  -9.25778 -48.6792 13.5034
RightFoot  17.584 0.101585 0.0794282
RightToes  0.000482159 0.542163 -0.142577
Spine  33.633 -4.29623 11.3162
Spine1  8.51737 0.11654 -4.56571
HEad  -7.71038 23.3259 -19.2794
LeftShoulder1  10.0103 -16.3432 -43.8966
LeftArm  -14.7825 24.1055 -16.8137
LeftForeArm  11.2051 -13.9892 -3.4739
LeftHand  -0.25398 0.0180481 5.50724
RightShoulder  6.12573 11.7792 34.1258
RightArm  7.43178 -8.86761 27.88
RightForeArm  -20.4844 26.9864 6.80371
RightHand  -3.58456 8.72065 -29.2926
LeftUpLeg  -24.9918 33.5548 -0.382931
LeftLeg  16.2117 9.07351 2.13051
LeftFoot  -2.77913 -0.158589 2.34371
LeftToes  1.06247e-005 4.65855e-005 -8.18504e-006
253
root  53.3029 39.3917 -2.23703 -169.307 -31.6672 175.728
RightUpLeg  -4.14976 -18.7013 -22.8991
RightLeg  -11.6741 -50.3458 14.9102
RightFoot  19.6648 -0.34819 1.73188
RightToes  0.000482159 0.542163 -0.142577
Spine  31.0354 -3.85095 10.3774
Spine1  8.33487 0.0453337 -4.52387
HEad  -5.56024 23.1199 -17.7071
LeftShoulder1  9.79363 -15.8896 -43.9565
LeftArm  -15.2487 26.8978 -17.8624
LeftForeArm  11.0326 -14.9612 -3.35454
LeftHand  -0.25398 0.0180481 5.50724
RightShoulder  5.9371 11.3587 33.9939
RightArm  7.79614 -14.0579 28.3312
RightForeArm  -19.5007 28.7643 7.20059
RightHand  -3.57505 8.61804 -29.4216
LeftUpLeg  -24.6942 34.9679 -1.87501
LeftLeg  16.9702 10.8679 2.87127
LeftFoot  -2.34501 -0.08184 1.2279
LeftToes  1.06247e-005 4.65855e-005 -8.18504e-006
254
root  51.9737 39.1031 -2.07584 -169.616 -35.2574 174.827
RightUpLeg  -0.338204 -19.9628 -26.5803
RightLeg  -11.0597 -51.7699 14.4746
RightFoot  19.6528 -1.41858 5.65961
RightToes  0.000482159 0.542163 -0.142577
Spine  28.4749 -3.60826 9.42625
Spine1  8.16668 -0.243783 -4.35791
HEad  -2.83717 22.4537 -15.5298
LeftShoulder1  9.6183 -15.4648 -44.1476
LeftArm  -14.8769 28.5808 -19.0466
LeftForeArm  10.8336 -15.2362 -3.45085
LeftHand  -0.25398 0.0180481 5.50724
RightShoulder  5.771 11.0255 33.7704
RightArm  7.85394 -19.5452 28.8209
RightForeArm  -19.1388 30.2246 7.55922
RightHand  -3.4314 8.07731 -29.3651
LeftUpLeg  -24.9691 35.8173 -4.2351
LeftLeg  19.7592 8.09762 3.48244
LeftFoot  -2.90085 0.0736732 -0.809213
LeftToes  1.06247e-005 4.65855e-005 -8.18504e-006
255
root  50.5637 38.8092 -1.88508 -170.33 -39.8674 173.763
RightUpLeg  3.78056 -20.8869 -30.3904
RightLeg  -6.92741 -49.5668 10.6698
RightFoot  15.6042 -2.16439 9.49707
RightToes  0.000482159 0.542163 -0.142577
Spine  26.2201 -3.68976 8.9848
Spine1  8.18072 -0.702158 -4.1804
HEad  0.462817 20.7251 -13.0988
LeftShoulder1  9.48573 -15.065 -44.4941
LeftArm  -14.249 28.8024 -20.2113
LeftForeArm  11.5641 -14.9725 -3.58413
LeftHand  -0.25398 0.0180481 5.50724
RightShoulder  5.64288 10.66 33.8921
RightArm  6.80239 -24.9633 29.3098
RightForeArm  -18.1478 31.2253 7.77785
RightHand  -3.22324 7.56286 -28.7147
LeftUpLeg  -23.9529 33.2097 -5.08749
LeftLeg  23.6071 5.83044 3.13482
LeftFoot  -5.41568 0.117213 -1.55469
LeftToes  1.06247e-005 4.65855e-005 -8.18504e-006
256
root  49.1721 38.6518 -1.66115 -171.754 -44.7384 172.846
RightUpLeg  7.0271 -20.3726 -32.7701
RightLeg  -0.688944 -40.5507 4.23366
RightFoot  8.27421 -1.57284 9.20685
RightToes  0.000482159 0.542163 -0.142577
Spine  24.6128 -3.77895 9.17672
Spine1  8.71639 -0.914872 -4.05114
HEad  3.70851 17.8245 -10.8621
LeftShoulder1  9.4161 -14.6954 -45.0912
LeftArm  -14.2026 27.5309 -21.3443
LeftForeArm  13.9189 -14.8327 -3.60236
LeftHand  -0.25398 0.0180481 5.50724
RightShoulder  5.53275 10.1846 34.4666
RightArm  4.64918 -29.3819 30.0907
RightForeArm  -17.4406 31.3544 7.77978
RightHand  -3.13859 7.4822 -28.1667
LeftUpLeg  -21.3357 30.248 -5.44876
LeftLeg  26.2255 4.17415 2.58807
LeftFoot  -8.57893 0.0572378 -0.126357
LeftToes  1.06247e-005 4.65855e-005 -8.18504e-006
257
root  47.8793 38.6709 -1.44457 -173.5 -48.8899 172.101
RightUpLeg  8.25476 -18.8964 -32.8316
RightLeg  5.5271 -26.1442 -1.28726
RightFoot  0.640286 -0.500516 4.77879
RightToes  0.000482159 0.542163 -0.142577
Spine  23.5423 -3.54035 9.32737
Spine1  9.5902 -0.722939 -3.88716
HEad  6.44196 14.608 -8.95884
LeftShoulder1  9.35833 -14.2682 -45.923
LeftArm  -14.4618 25.722 -22.5894
LeftForeArm  17.2177 -15.8157 -3.53906
LeftHand  -0.25398 0.0180481 5.50724
RightShoulder  5.47691 9.77239 35.2868
RightArm  2.73529 -31.9024 31.2535
RightForeArm  -18.4705 30.2066 7.52557
RightHand  -3.00629 7.01356 -28.0047
LeftUpLeg  -17.25 27.5684 -5.56167
LeftLeg  26.5818 3.77846 2.39963
LeftFoot  -10.6345 0.0499476 1.89413
LeftToes  1.06247e-005 4.65855e-005 -8.18504e-006
258
root  46.713 38.7977 -1.2904 -174.833 -52.1318 171.465
RightUpLeg  7.29193 -16.5879 -30.9187
RightLeg  12.0401 -11.8333 -3.35467
RightFoot  -4.6464 -0.12964 1.96675
RightToes  0.000482159 0.542163 -0.142577
Spine  22.6551 -3.0496 8.89728
Spine1  10.1801 -0.4207 -3.72635
HEad  8.91362 12.0096 -7.30923
LeftShoulder1  9.21551 -13.7145 -46.6974
LeftArm  -14.2307 24.4904 -24.1319
LeftForeArm  20.0312 -18.1916 -3.52935
LeftHand  -0.25398 0.0180481 5.50724
RightShoulder  5.50483 9.59206 36.0518
RightArm  2.32059 -32.5248 32.4503
RightForeArm  -20.2429 28.3387 7.12651
RightHand  -2.50432 5.25185 -27.1617
LeftUpLeg  -12.9165 25.1363 -5.71537
LeftLeg  25.3354 3.77256 2.29021
LeftFoot  -11.3873 0.0688688 2.99289
LeftToes  1.06247e-005 4.65855e-005 -8.18504e-006
259
root  45.6493 38.9759 -1.20628 -175.81 -54.8214 171.324
RightUpLeg  4.55939 -12.1336 -27.4405
RightLeg  19.5014 -4.46146 -2.02123
RightFoot  -6.93605 -0.182729 3.55099
RightToes  0.000482159 0.542163 -0.142577
Spine  21.777 -2.61561 8.29299
Spine1  10.2693 -0.240964 -3.85671
HEad  11.401 10.1177 -5.87286
LeftShoulder1  9.00127 -13.1573 -47.1451
LeftArm  -13.5949 23.978 -25.9316
LeftForeArm  21.8876 -21.1221 -3.61034
LeftHand  -0.25398 0.0180481 5.50724
RightShoulder  5.53129 9.52093 36.4746
RightArm  2.87983 -32.0532 33.5374
RightForeArm  -20.5744 27.2663 6.87435
RightHand  -1.83533 3.04064 -25.1799
LeftUpLeg  -9.1778 23.5565 -5.71156
LeftLeg  23.5215 3.02571 1.8458
LeftFoot  -11.8004 0.0845636 3.37867
LeftToes  1.06247e-005 4.65855e-005 -8.18504e-006
260
root  44.6285 39.2051 -1.15412 -177.091 -57.2857 172.162
RightUpLeg  0.967678 -10.6794 -22.8975
RightLeg  26.5333 -2.33284 -1.56406
RightFoot  -7.75531 -0.236112 5.78567
RightToes  0.000482159 0.542163 -0.142577
Spine  20.833 -2.43799 8.10023
Spine1  10.2508 -0.239668 -4.13739
HEad  13.5758 8.60047 -4.69289
LeftShoulder1  8.82427 -12.7893 -47.2633
LeftArm  -13.4367 23.7308 -27.783
LeftForeArm  23.531 -23.7003 -3.8329
LeftHand  -0.25398 0.0180481 5.50724
RightShoulder  5.44766 9.34651 36.4014
RightArm  2.98148 -31.152 34.6046
RightForeArm  -19.1985 28.0737 7.01494
RightHand  -1.50726 2.03082 -23.5559
LeftUpLeg  -5.71406 22.4907 -4.98756
LeftLeg  21.2193 2.10541 0.871223
LeftFoot  -12.1916 0.101793 3.85441
LeftToes  1.06247e-005 4.65855e-005 -8.18504e-006
